<svg width="81" height="24" viewBox="0 0 81 24" fill="none" xmlns="http://www.w3.org/2000/svg">
<path d="M20.5 21V19C20.5 17.9391 20.0786 16.9217 19.3284 16.1716C18.5783 15.4214 17.5609 15 16.5 15H8.5C7.43913 15 6.42172 15.4214 5.67157 16.1716C4.92143 16.9217 4.5 17.9391 4.5 19V21" stroke="#434343" stroke-width="2" stroke-linecap="round" stroke-linejoin="round"/>
<path d="M12.5 11C14.7091 11 16.5 9.20914 16.5 7C16.5 4.79086 14.7091 3 12.5 3C10.2909 3 8.5 4.79086 8.5 7C8.5 9.20914 10.2909 11 12.5 11Z" stroke="#434343" stroke-width="2" stroke-linecap="round" stroke-linejoin="round"/>
<path d="M30.94 18L35.076 6.432H37.548L41.684 18H39.356L38.412 15.32H34.244L33.284 18H30.94ZM34.772 13.28H37.844L36.316 8.68L34.772 13.28ZM45.9874 18.16C44.878 18.16 44.014 17.7787 43.3954 17.016C42.7767 16.248 42.4674 15.1813 42.4674 13.816C42.4674 12.952 42.5927 12.2027 42.8434 11.568C43.094 10.9333 43.4647 10.4427 43.9554 10.096C44.446 9.744 45.046 9.568 45.7554 9.568C46.054 9.568 46.3314 9.60267 46.5874 9.672C46.8487 9.736 47.086 9.82667 47.2994 9.944C47.5127 10.0613 47.6994 10.1973 47.8594 10.352C48.0194 10.5067 48.15 10.672 48.2514 10.848V6.112H50.5954V18H48.8994L48.6354 16.304C48.5554 16.5333 48.4487 16.7573 48.3154 16.976C48.1874 17.1947 48.0194 17.3947 47.8114 17.576C47.6034 17.752 47.3474 17.8933 47.0434 18C46.7447 18.1067 46.3927 18.16 45.9874 18.16ZM46.4994 16.48C47.086 16.48 47.5234 16.2747 47.8114 15.864C48.1047 15.4533 48.2514 14.76 48.2514 13.784C48.246 13.2187 48.1794 12.7493 48.0514 12.376C47.9234 12.0027 47.7314 11.7253 47.4754 11.544C47.2247 11.3573 46.9047 11.264 46.5154 11.264C46.0087 11.264 45.5874 11.4587 45.2514 11.848C44.9154 12.232 44.7474 12.8773 44.7474 13.784C44.7474 14.7067 44.9047 15.3867 45.2194 15.824C45.534 16.2613 45.9607 16.48 46.4994 16.48ZM52.6406 18V9.728H54.9286V10.896C55.1793 10.5333 55.5153 10.2213 55.9366 9.96C56.3633 9.69867 56.8993 9.568 57.5446 9.568C57.8273 9.568 58.1153 9.61867 58.4086 9.72C58.702 9.82133 58.9766 9.97067 59.2326 10.168C59.494 10.36 59.7046 10.6027 59.8646 10.896C60.1313 10.5173 60.4806 10.2027 60.9126 9.952C61.35 9.696 61.8353 9.568 62.3686 9.568C62.678 9.568 62.99 9.61867 63.3046 9.72C63.6246 9.82133 63.918 9.98667 64.1846 10.216C64.4513 10.4453 64.6646 10.752 64.8246 11.136C64.99 11.5147 65.0726 11.984 65.0726 12.544V18H62.7366V12.832C62.7366 12.5013 62.67 12.2373 62.5366 12.04C62.4086 11.8373 62.2433 11.6933 62.0406 11.608C61.8433 11.5173 61.6326 11.472 61.4086 11.472C61.2006 11.472 60.99 11.5147 60.7766 11.6C60.5633 11.68 60.382 11.8107 60.2326 11.992C60.0833 12.1733 60.0086 12.4107 60.0086 12.704V18H57.6806V12.624C57.6806 12.3733 57.614 12.1627 57.4806 11.992C57.3473 11.8213 57.1793 11.6933 56.9766 11.608C56.7793 11.5173 56.5766 11.472 56.3686 11.472C56.1553 11.472 55.942 11.5173 55.7286 11.608C55.5153 11.6933 55.3366 11.8293 55.1926 12.016C55.0486 12.1973 54.9766 12.4267 54.9766 12.704V18H52.6406ZM66.9928 18V9.728H69.2248V18H66.9928ZM66.9688 8.544V6.44H69.2408V8.544H66.9688ZM71.2812 18V9.728H73.5773V10.896C73.7053 10.6933 73.8706 10.4987 74.0733 10.312C74.2813 10.12 74.5426 9.96267 74.8573 9.84C75.1719 9.71733 75.5453 9.656 75.9773 9.656C76.4839 9.656 76.9559 9.75467 77.3933 9.952C77.8359 10.1493 78.1933 10.4613 78.4653 10.888C78.7373 11.3093 78.8733 11.8613 78.8733 12.544V18H76.5373V12.832C76.5373 12.384 76.4039 12.048 76.1373 11.824C75.8706 11.6 75.5453 11.488 75.1613 11.488C74.9053 11.488 74.6573 11.5333 74.4173 11.624C74.1826 11.7147 73.9906 11.8507 73.8413 12.032C73.6919 12.2133 73.6173 12.4373 73.6173 12.704V18H71.2812Z" fill="#434343"/>
</svg>
