<svg width="17" height="17" viewBox="0 0 17 17" fill="none" xmlns="http://www.w3.org/2000/svg">
<g clip-path="url(#clip0_279_2549)">
<path d="M12.0417 14.875V13.4583C12.0417 12.7069 11.7432 11.9862 11.2118 11.4549C10.6805 10.9235 9.95979 10.625 9.20834 10.625H3.54168C2.79023 10.625 2.06956 10.9235 1.53821 11.4549C1.00685 11.9862 0.708344 12.7069 0.708344 13.4583V14.875" stroke="black" stroke-width="1.5" stroke-linecap="round" stroke-linejoin="round"/>
<path d="M6.37502 7.79167C7.93983 7.79167 9.20835 6.52314 9.20835 4.95833C9.20835 3.39353 7.93983 2.125 6.37502 2.125C4.81021 2.125 3.54169 3.39353 3.54169 4.95833C3.54169 6.52314 4.81021 7.79167 6.37502 7.79167Z" stroke="black" stroke-width="1.5" stroke-linecap="round" stroke-linejoin="round"/>
<path d="M16.2917 14.8752V13.4585C16.2912 12.8308 16.0823 12.2209 15.6977 11.7248C15.313 11.2286 14.7745 10.8742 14.1667 10.7173" stroke="black" stroke-width="1.5" stroke-linecap="round" stroke-linejoin="round"/>
<path d="M11.3333 2.21729C11.9428 2.37333 12.483 2.72778 12.8687 3.22476C13.2545 3.72173 13.4639 4.33296 13.4639 4.96208C13.4639 5.5912 13.2545 6.20243 12.8687 6.6994C12.483 7.19637 11.9428 7.55082 11.3333 7.70687" stroke="black" stroke-width="1.5" stroke-linecap="round" stroke-linejoin="round"/>
</g>
<defs>
<clipPath id="clip0_279_2549">
<rect width="17" height="17" fill="white"/>
</clipPath>
</defs>
</svg>
